<svg width="280" height="190" viewBox="0 0 280 190" fill="none" xmlns="http://www.w3.org/2000/svg">
  <!-- Background elements -->
  <rect x="10" y="10" width="260" height="170" rx="4" fill="#E6FFFA" />
  
  <!-- UI Elements -->
  <rect x="75" y="40" width="140" height="20" rx="2" fill="#FFFFFF" stroke="#DDDDDD" />
  <rect x="75" y="70" width="140" height="40" rx="2" fill="#FFFFFF" stroke="#DDDDDD" />
  <rect x="75" y="120" width="140" height="20" rx="2" fill="#FFFFFF" stroke="#DDDDDD" />
  
  <!-- Person on left -->
  <circle cx="50" cy="130" r="20" fill="#5555FF" />
  <rect x="40" y="95" width="20" height="35" rx="10" fill="#5555FF" />
  <rect x="35" y="150" width="30" height="10" rx="5" fill="#5555FF" />
  <rect x="45" y="160" width="10" height="20" rx="5" fill="#5555FF" />
  
  <!-- Person on right -->
  <circle cx="230" cy="85" r="20" fill="#FF5555" />
  <rect x="220" y="105" width="20" height="35" rx="10" fill="#FF5555" />
  <rect x="215" y="140" width="30" height="10" rx="5" fill="#FF5555" />
  <rect x="225" y="150" width="10" height="20" rx="5" fill="#FF5555" />
  
  <!-- Design elements -->
  <rect x="115" y="80" width="40" height="5" rx="2.5" fill="#FFB100" />
  <rect x="120" y="90" width="30" height="5" rx="2.5" fill="#FFB100" />
  <rect x="140" y="50" width="60" height="8" rx="4" fill="#FF8855" />
  
  <!-- Card elements -->
  <rect x="170" y="100" width="40" height="40" rx="4" fill="#FFCC00" />
  <rect x="180" y="110" width="20" height="20" rx="2" fill="#FFFFFF" />
</svg> 